<mxfile host="app.diagrams.net" modified="2023-03-07T13:22:37.007Z" agent="5.0 (Windows NT 10.0; Win64; x64) AppleWebKit/537.36 (KHTML, like Gecko) Chrome/97.0.4692.71 Safari/537.36" etag="TZDQ7BfNqLb3fJThEiWY" version="21.0.2" type="github">
  <diagram name="第 1 页" id="AIS_i08w1zbjeMlKkj7B">
    <mxGraphModel dx="1050" dy="548" grid="0" gridSize="10" guides="1" tooltips="1" connect="1" arrows="1" fold="1" page="1" pageScale="1" pageWidth="827" pageHeight="1169" math="0" shadow="0">
      <root>
        <mxCell id="0" />
        <mxCell id="1" parent="0" />
        <mxCell id="UQhuTX7X8VPnildVhVtL-1" value="" style="rounded=1;whiteSpace=wrap;html=1;arcSize=7;comic=1;" vertex="1" parent="1">
          <mxGeometry x="30" y="35" width="730" height="470" as="geometry" />
        </mxCell>
        <mxCell id="UQhuTX7X8VPnildVhVtL-21" value="" style="rounded=0;whiteSpace=wrap;html=1;comic=1;fillColor=#e1d5e7;strokeColor=#9673a6;" vertex="1" parent="1">
          <mxGeometry x="30" y="215" width="730" height="290" as="geometry" />
        </mxCell>
        <mxCell id="UQhuTX7X8VPnildVhVtL-20" value="" style="rounded=0;whiteSpace=wrap;html=1;comic=1;fillColor=#ffe6cc;strokeColor=#d79b00;" vertex="1" parent="1">
          <mxGeometry x="30" y="125" width="730" height="90" as="geometry" />
        </mxCell>
        <mxCell id="UQhuTX7X8VPnildVhVtL-22" value="&lt;font style=&quot;font-size: 16px;&quot;&gt;用户空间&lt;/font&gt;" style="text;html=1;align=center;verticalAlign=middle;resizable=0;points=[];autosize=1;strokeColor=none;fillColor=none;" vertex="1" parent="1">
          <mxGeometry x="660" y="130" width="90" height="30" as="geometry" />
        </mxCell>
        <mxCell id="UQhuTX7X8VPnildVhVtL-23" value="&lt;font style=&quot;font-size: 16px;&quot;&gt;内核空间&lt;/font&gt;" style="text;html=1;align=center;verticalAlign=middle;resizable=0;points=[];autosize=1;strokeColor=none;fillColor=none;" vertex="1" parent="1">
          <mxGeometry x="660" y="480" width="90" height="30" as="geometry" />
        </mxCell>
        <mxCell id="UQhuTX7X8VPnildVhVtL-40" style="edgeStyle=orthogonalEdgeStyle;rounded=0;orthogonalLoop=1;jettySize=auto;html=1;exitX=0.5;exitY=1;exitDx=0;exitDy=0;entryX=0.5;entryY=0;entryDx=0;entryDy=0;startArrow=classic;startFill=1;" edge="1" parent="1" source="UQhuTX7X8VPnildVhVtL-25" target="UQhuTX7X8VPnildVhVtL-29">
          <mxGeometry relative="1" as="geometry" />
        </mxCell>
        <mxCell id="UQhuTX7X8VPnildVhVtL-25" value="&lt;font style=&quot;font-size: 16px;&quot;&gt;应用层&lt;/font&gt;" style="rounded=1;whiteSpace=wrap;html=1;fillColor=#dae8fc;strokeColor=#6c8ebf;comic=1;fontSize=16;fontFamily=Comic Sans MS;" vertex="1" parent="1">
          <mxGeometry x="95" y="150" width="95" height="40" as="geometry" />
        </mxCell>
        <mxCell id="UQhuTX7X8VPnildVhVtL-43" style="rounded=0;orthogonalLoop=1;jettySize=auto;html=1;exitX=0.5;exitY=1;exitDx=0;exitDy=0;entryX=0.5;entryY=0;entryDx=0;entryDy=0;" edge="1" parent="1" source="UQhuTX7X8VPnildVhVtL-26" target="UQhuTX7X8VPnildVhVtL-31">
          <mxGeometry relative="1" as="geometry" />
        </mxCell>
        <mxCell id="UQhuTX7X8VPnildVhVtL-44" style="rounded=0;orthogonalLoop=1;jettySize=auto;html=1;exitX=0.5;exitY=1;exitDx=0;exitDy=0;" edge="1" parent="1" source="UQhuTX7X8VPnildVhVtL-26" target="UQhuTX7X8VPnildVhVtL-32">
          <mxGeometry relative="1" as="geometry" />
        </mxCell>
        <mxCell id="UQhuTX7X8VPnildVhVtL-45" style="rounded=0;orthogonalLoop=1;jettySize=auto;html=1;exitX=0.5;exitY=1;exitDx=0;exitDy=0;entryX=0.5;entryY=0;entryDx=0;entryDy=0;" edge="1" parent="1" source="UQhuTX7X8VPnildVhVtL-26" target="UQhuTX7X8VPnildVhVtL-33">
          <mxGeometry relative="1" as="geometry" />
        </mxCell>
        <mxCell id="UQhuTX7X8VPnildVhVtL-46" style="rounded=0;orthogonalLoop=1;jettySize=auto;html=1;exitX=0.5;exitY=1;exitDx=0;exitDy=0;entryX=0.5;entryY=0;entryDx=0;entryDy=0;" edge="1" parent="1" source="UQhuTX7X8VPnildVhVtL-26" target="UQhuTX7X8VPnildVhVtL-34">
          <mxGeometry relative="1" as="geometry" />
        </mxCell>
        <mxCell id="UQhuTX7X8VPnildVhVtL-47" style="rounded=0;orthogonalLoop=1;jettySize=auto;html=1;exitX=0.5;exitY=1;exitDx=0;exitDy=0;entryX=0.5;entryY=0;entryDx=0;entryDy=0;" edge="1" parent="1" source="UQhuTX7X8VPnildVhVtL-26" target="UQhuTX7X8VPnildVhVtL-35">
          <mxGeometry relative="1" as="geometry" />
        </mxCell>
        <mxCell id="UQhuTX7X8VPnildVhVtL-26" value="iptables" style="rounded=1;whiteSpace=wrap;html=1;fillColor=#dae8fc;strokeColor=#6c8ebf;comic=1;fontSize=16;fontFamily=Comic Sans MS;" vertex="1" parent="1">
          <mxGeometry x="375" y="150" width="95" height="40" as="geometry" />
        </mxCell>
        <mxCell id="UQhuTX7X8VPnildVhVtL-28" value="NetFilter框架" style="rounded=1;whiteSpace=wrap;html=1;fillColor=#f5f5f5;strokeColor=#666666;comic=1;fontSize=16;fontFamily=Comic Sans MS;fontColor=#333333;" vertex="1" parent="1">
          <mxGeometry x="362.5" y="70" width="120" height="40" as="geometry" />
        </mxCell>
        <mxCell id="UQhuTX7X8VPnildVhVtL-53" style="edgeStyle=orthogonalEdgeStyle;rounded=0;orthogonalLoop=1;jettySize=auto;html=1;exitX=0.5;exitY=1;exitDx=0;exitDy=0;startArrow=classic;startFill=1;" edge="1" parent="1" source="UQhuTX7X8VPnildVhVtL-29" target="UQhuTX7X8VPnildVhVtL-36">
          <mxGeometry relative="1" as="geometry" />
        </mxCell>
        <mxCell id="UQhuTX7X8VPnildVhVtL-29" value="传输层" style="rounded=1;whiteSpace=wrap;html=1;fillColor=#d5e8d4;strokeColor=#82b366;comic=1;fontSize=16;fontFamily=Comic Sans MS;" vertex="1" parent="1">
          <mxGeometry x="95" y="240" width="95" height="40" as="geometry" />
        </mxCell>
        <mxCell id="UQhuTX7X8VPnildVhVtL-31" value="filter" style="rounded=1;whiteSpace=wrap;html=1;fillColor=#d5e8d4;strokeColor=#82b366;comic=1;fontSize=16;fontFamily=Comic Sans MS;" vertex="1" parent="1">
          <mxGeometry x="217.5" y="240" width="95" height="40" as="geometry" />
        </mxCell>
        <mxCell id="UQhuTX7X8VPnildVhVtL-32" value="nat" style="rounded=1;whiteSpace=wrap;html=1;fillColor=#d5e8d4;strokeColor=#82b366;comic=1;fontSize=16;fontFamily=Comic Sans MS;" vertex="1" parent="1">
          <mxGeometry x="318.5" y="240" width="95" height="40" as="geometry" />
        </mxCell>
        <mxCell id="UQhuTX7X8VPnildVhVtL-33" value="mangle" style="rounded=1;whiteSpace=wrap;html=1;fillColor=#d5e8d4;strokeColor=#82b366;comic=1;fontSize=16;fontFamily=Comic Sans MS;" vertex="1" parent="1">
          <mxGeometry x="420" y="240" width="95" height="40" as="geometry" />
        </mxCell>
        <mxCell id="UQhuTX7X8VPnildVhVtL-34" value="raw" style="rounded=1;whiteSpace=wrap;html=1;fillColor=#d5e8d4;strokeColor=#82b366;comic=1;fontSize=16;fontFamily=Comic Sans MS;" vertex="1" parent="1">
          <mxGeometry x="525" y="240" width="95" height="40" as="geometry" />
        </mxCell>
        <mxCell id="UQhuTX7X8VPnildVhVtL-35" value="security" style="rounded=1;whiteSpace=wrap;html=1;fillColor=#d5e8d4;strokeColor=#82b366;comic=1;fontSize=16;fontFamily=Comic Sans MS;" vertex="1" parent="1">
          <mxGeometry x="630" y="240" width="95" height="40" as="geometry" />
        </mxCell>
        <mxCell id="UQhuTX7X8VPnildVhVtL-54" style="edgeStyle=orthogonalEdgeStyle;rounded=0;orthogonalLoop=1;jettySize=auto;html=1;exitX=0.5;exitY=1;exitDx=0;exitDy=0;entryX=0.5;entryY=0;entryDx=0;entryDy=0;startArrow=classic;startFill=1;" edge="1" parent="1" source="UQhuTX7X8VPnildVhVtL-36" target="UQhuTX7X8VPnildVhVtL-37">
          <mxGeometry relative="1" as="geometry" />
        </mxCell>
        <mxCell id="UQhuTX7X8VPnildVhVtL-36" value="网络层" style="rounded=1;whiteSpace=wrap;html=1;fillColor=#d5e8d4;strokeColor=#82b366;comic=1;fontSize=16;fontFamily=Comic Sans MS;" vertex="1" parent="1">
          <mxGeometry x="95" y="320" width="95" height="40" as="geometry" />
        </mxCell>
        <mxCell id="UQhuTX7X8VPnildVhVtL-37" value="网络接口层" style="rounded=1;whiteSpace=wrap;html=1;fillColor=#d5e8d4;strokeColor=#82b366;comic=1;fontSize=16;fontFamily=Comic Sans MS;" vertex="1" parent="1">
          <mxGeometry x="95" y="400" width="95" height="40" as="geometry" />
        </mxCell>
        <mxCell id="UQhuTX7X8VPnildVhVtL-48" style="rounded=0;orthogonalLoop=1;jettySize=auto;html=1;exitX=0.5;exitY=0;exitDx=0;exitDy=0;entryX=0.5;entryY=1;entryDx=0;entryDy=0;" edge="1" parent="1" source="UQhuTX7X8VPnildVhVtL-38" target="UQhuTX7X8VPnildVhVtL-31">
          <mxGeometry relative="1" as="geometry" />
        </mxCell>
        <mxCell id="UQhuTX7X8VPnildVhVtL-49" style="rounded=0;orthogonalLoop=1;jettySize=auto;html=1;exitX=0.5;exitY=0;exitDx=0;exitDy=0;entryX=0.5;entryY=1;entryDx=0;entryDy=0;" edge="1" parent="1" source="UQhuTX7X8VPnildVhVtL-38" target="UQhuTX7X8VPnildVhVtL-32">
          <mxGeometry relative="1" as="geometry" />
        </mxCell>
        <mxCell id="UQhuTX7X8VPnildVhVtL-50" style="rounded=0;orthogonalLoop=1;jettySize=auto;html=1;exitX=0.5;exitY=0;exitDx=0;exitDy=0;" edge="1" parent="1" source="UQhuTX7X8VPnildVhVtL-38" target="UQhuTX7X8VPnildVhVtL-33">
          <mxGeometry relative="1" as="geometry" />
        </mxCell>
        <mxCell id="UQhuTX7X8VPnildVhVtL-51" style="rounded=0;orthogonalLoop=1;jettySize=auto;html=1;exitX=0.5;exitY=0;exitDx=0;exitDy=0;entryX=0.5;entryY=1;entryDx=0;entryDy=0;" edge="1" parent="1" source="UQhuTX7X8VPnildVhVtL-38" target="UQhuTX7X8VPnildVhVtL-34">
          <mxGeometry relative="1" as="geometry" />
        </mxCell>
        <mxCell id="UQhuTX7X8VPnildVhVtL-52" style="rounded=0;orthogonalLoop=1;jettySize=auto;html=1;exitX=0.5;exitY=0;exitDx=0;exitDy=0;entryX=0.5;entryY=1;entryDx=0;entryDy=0;" edge="1" parent="1" source="UQhuTX7X8VPnildVhVtL-38" target="UQhuTX7X8VPnildVhVtL-35">
          <mxGeometry relative="1" as="geometry" />
        </mxCell>
        <mxCell id="UQhuTX7X8VPnildVhVtL-38" value="NetFilter" style="rounded=1;whiteSpace=wrap;html=1;fillColor=#d5e8d4;strokeColor=#82b366;comic=1;fontSize=16;fontFamily=Comic Sans MS;" vertex="1" parent="1">
          <mxGeometry x="220" y="320" width="500" height="40" as="geometry" />
        </mxCell>
      </root>
    </mxGraphModel>
  </diagram>
</mxfile>
